<svg width="32" height="32" viewBox="0 0 32 32" fill="none" xmlns="http://www.w3.org/2000/svg">
  <!-- Dark background circle -->
  <circle cx="16" cy="16" r="16" fill="#1a2332"/>
  <circle cx="16" cy="16" r="15.5" stroke="#85abe4" stroke-width="1"/>
  
  <!-- Lion head profile silhouette -->
  <g fill="#85abe4">
    <!-- Main head shape -->
    <path d="M16 8 C18 8 20 9 21 11 C21.5 12 21.5 13.5 21 15 C20.5 16.5 19.5 17.5 18.5 18 C17.5 18.5 16.5 18.5 16 18.5 C15.5 18.5 15 18.3 14.5 18 C14 17.5 13.5 17 13.2 16.2 C13 15.5 13 14.5 13.2 13.5 C13.5 12 14.5 10.5 15.5 9.5 C15.8 9 16 8.5 16 8"/>
    
    <!-- Lion mane flowing lines -->
    <path d="M12 10 C11 10.5 10.5 11.5 10 13 C9.8 14 10 15 10.5 15.5 C11 16 12 16 12.5 15.5"/>
    <path d="M11 8 C10 8.5 9 9.5 8.5 11 C8.2 12 8.5 13 9 13.5 C9.5 14 10.5 14 11 13.5"/>
    <path d="M13 7 C12 7.2 11 8 10.5 9.5 C10.2 10.5 10.5 11.5 11 12 C11.5 12.5 12.5 12.5 13 12"/>
    <path d="M15 6.5 C14 6.8 13 7.5 12.5 8.5 C12.2 9.5 12.5 10.5 13 11 C13.5 11.5 14.5 11.5 15 11"/>
    
    <!-- Ear -->
    <path d="M17 8.5 C17.5 8.2 18 8.5 18.2 9 C18.3 9.5 18 10 17.5 10.2 C17 10.3 16.5 10 16.5 9.5 C16.5 9 17 8.5 17 8.5"/>
    
    <!-- Eye -->
    <ellipse cx="17" cy="12" rx="0.8" ry="1.2" fill="#1a2332"/>
    
    <!-- Nose -->
    <ellipse cx="19" cy="14.5" rx="0.5" ry="0.8" fill="#1a2332"/>
    
    <!-- Mouth line -->
    <path d="M18.5 15.5 C18.8 16 19 16.5 19 17" stroke="#1a2332" stroke-width="0.8" fill="none"/>
  </g>
  
  <!-- FUNDTEK text curved at top -->
  <path id="top-curve" d="M 6 16 A 10 10 0 0 1 26 16" fill="none"/>
  <text font-family="Arial, sans-serif" font-size="3.2" font-weight="bold" fill="#85abe4">
    <textPath href="#top-curve" startOffset="50%" text-anchor="middle">FUNDTEK</textPath>
  </text>
  
  <!-- CAPITAL text curved at bottom -->
  <path id="bottom-curve" d="M 26 16 A 10 10 0 0 1 6 16" fill="none"/>
  <text font-family="Arial, sans-serif" font-size="3.2" font-weight="bold" fill="#85abe4">
    <textPath href="#bottom-curve" startOffset="50%" text-anchor="middle">CAPITAL</textPath>
  </text>
  
  <!-- Two dots on sides -->
  <circle cx="6" cy="16" r="0.8" fill="#85abe4"/>
  <circle cx="26" cy="16" r="0.8" fill="#85abe4"/>
</svg>