<svg width="32" height="32" viewBox="0 0 32 32" fill="none" xmlns="http://www.w3.org/2000/svg">
  <circle cx="16" cy="16" r="16" fill="#1a2332"/>
  <circle cx="16" cy="16" r="15" stroke="#85abe4" stroke-width="1"/>
  
  <!-- Lion head design -->
  <circle cx="16" cy="14" r="7" fill="#85abe4"/>
  
  <!-- Lion ears -->
  <circle cx="11" cy="10" r="2.5" fill="#85abe4"/>
  <circle cx="21" cy="10" r="2.5" fill="#85abe4"/>
  <circle cx="11" cy="10" r="1.5" fill="#1a2332"/>
  <circle cx="21" cy="10" r="1.5" fill="#1a2332"/>
  
  <!-- Lion eyes -->
  <ellipse cx="13" cy="12" rx="1.2" ry="1.8" fill="#1a2332"/>
  <ellipse cx="19" cy="12" rx="1.2" ry="1.8" fill="#1a2332"/>
  
  <!-- Lion nose -->
  <polygon points="16,15 15,16.5 17,16.5" fill="#1a2332"/>
  
  <!-- Lion mouth/muzzle -->
  <path d="M14 17 Q16 19 18 17" stroke="#1a2332" stroke-width="1.5" fill="none"/>
  <path d="M16 16.5 L16 17.5" stroke="#1a2332" stroke-width="1.2"/>
  
  <!-- Lion mane details -->
  <circle cx="16" cy="14" r="8" fill="none" stroke="#85abe4" stroke-width="0.8" opacity="0.6"/>
  
  <!-- FUNDTEK text curved at top -->
  <path id="top-curve" d="M 5 16 A 11 11 0 0 1 27 16" fill="none"/>
  <text font-family="Arial, sans-serif" font-size="3.5" font-weight="bold" fill="#85abe4">
    <textPath href="#top-curve" startOffset="50%" text-anchor="middle">FUNDTEK</textPath>
  </text>
  
  <!-- CAPITAL text curved at bottom -->
  <path id="bottom-curve" d="M 27 16 A 11 11 0 0 1 5 16" fill="none"/>
  <text font-family="Arial, sans-serif" font-size="3.5" font-weight="bold" fill="#85abe4">
    <textPath href="#bottom-curve" startOffset="50%" text-anchor="middle">CAPITAL</textPath>
  </text>
</svg>