<svg width="32" height="32" viewBox="0 0 32 32" fill="none" xmlns="http://www.w3.org/2000/svg">
  <!-- Blue gradient background -->
  <defs>
    <radialGradient id="bg" cx="50%" cy="50%" r="50%">
      <stop offset="0%" stop-color="#95c5f4"/>
      <stop offset="100%" stop-color="#85abe4"/>
    </radialGradient>
    <radialGradient id="mane" cx="50%" cy="40%" r="60%">
      <stop offset="0%" stop-color="#ffffff"/>
      <stop offset="70%" stop-color="#f0f8ff"/>
      <stop offset="100%" stop-color="#e6f3ff"/>
    </radialGradient>
  </defs>
  
  <!-- Main circle -->
  <circle cx="16" cy="16" r="16" fill="url(#bg)"/>
  
  <!-- Lion mane -->
  <circle cx="16" cy="16" r="12" fill="url(#mane)" opacity="0.9"/>
  
  <!-- Lion face -->
  <ellipse cx="16" cy="16" rx="8" ry="7" fill="#ffd700"/>
  
  <!-- Eyes -->
  <ellipse cx="12.5" cy="14" rx="1.5" ry="2" fill="#2c3e50"/>
  <ellipse cx="19.5" cy="14" rx="1.5" ry="2" fill="#2c3e50"/>
  <ellipse cx="12.8" cy="13.5" rx="0.5" ry="0.8" fill="#ffffff"/>
  <ellipse cx="19.8" cy="13.5" rx="0.5" ry="0.8" fill="#ffffff"/>
  
  <!-- Nose -->
  <ellipse cx="16" cy="17" rx="1" ry="0.8" fill="#ff6b6b"/>
  
  <!-- Mouth -->
  <path d="M14 19 Q16 21 18 19" stroke="#2c3e50" stroke-width="1.5" fill="none" stroke-linecap="round"/>
  
  <!-- Small crown elements -->
  <polygon points="13,8 14,6 15,8" fill="#ffd700"/>
  <polygon points="16,7 17,5 18,7" fill="#ffd700"/>
  <polygon points="19,8 20,6 21,8" fill="#ffd700"/>
</svg>