<svg width="32" height="32" viewBox="0 0 32 32" fill="none" xmlns="http://www.w3.org/2000/svg">
  <!-- Transparent background - no background at all -->
  
  <!-- Dark blue border circle -->
  <circle cx="16" cy="16" r="15" stroke="#1e3a8a" stroke-width="1.5" fill="none"/>
  
  <!-- Lion head profile in signature blue -->
  <g fill="#85abe4">
    <!-- Main lion head shape -->
    <path d="M16 9 C17.5 9 19 9.5 20 10.5 C20.5 11.5 20.5 12.5 20 13.5 C19.5 14.5 18.5 15 17.5 15.5 C16.5 16 15.5 16 15 15.5 C14.5 15 14 14.5 13.8 14 C13.5 13.5 13.5 12.5 13.8 12 C14 11 14.5 10 15.5 9.5 C15.7 9.2 16 9 16 9"/>
    
    <!-- Lion mane strands -->
    <path d="M12.5 11 C12 11.5 11.5 12 11.2 12.8 C11 13.5 11.2 14 11.8 14.2 C12.2 14.3 12.5 14 12.8 13.5"/>
    <path d="M11.5 9.5 C11 10 10.5 10.5 10.2 11.5 C10 12 10.2 12.5 10.8 12.8 C11.2 13 11.5 12.8 11.8 12.2"/>
    <path d="M13 8.5 C12.5 8.8 12 9.2 11.8 10 C11.5 10.5 11.8 11 12.2 11.2 C12.5 11.3 12.8 11 13 10.5"/>
    
    <!-- Lion ear -->
    <ellipse cx="17.5" cy="10" rx="1" ry="1.5" fill="#85abe4"/>
    <ellipse cx="17.5" cy="10" rx="0.5" ry="0.8" fill="#1e3a8a"/>
    
    <!-- Lion eye -->
    <ellipse cx="16.5" cy="12" rx="0.6" ry="0.9" fill="#1e3a8a"/>
    
    <!-- Lion nose -->
    <ellipse cx="18" cy="13.5" rx="0.4" ry="0.6" fill="#1e3a8a"/>
  </g>
  
  <!-- FUNDTEK text curved at top -->
  <defs>
    <path id="top-arc" d="M 8 16 A 8 8 0 0 1 24 16"/>
  </defs>
  <text fill="#85abe4" font-family="Arial, sans-serif" font-size="2.8" font-weight="bold">
    <textPath href="#top-arc" startOffset="50%" text-anchor="middle">FUNDTEK</textPath>
  </text>
  
  <!-- CAPITAL text curved at bottom -->
  <defs>
    <path id="bottom-arc" d="M 24 16 A 8 8 0 0 1 8 16"/>
  </defs>
  <text fill="#85abe4" font-family="Arial, sans-serif" font-size="2.8" font-weight="bold">
    <textPath href="#bottom-arc" startOffset="50%" text-anchor="middle">CAPITAL</textPath>
  </text>
</svg>